<?xml version='1.0' encoding='iso-8859-1'?>
<!-- Uploaded to: SVG Repo, www.svgrepo.com, Generator: SVG Repo Mixer Tools -->
<svg fill="#000000" height="800px" width="800px" version="1.1" xmlns="http://www.w3.org/2000/svg" viewBox="0 0 490 490" xmlns:xlink="http://www.w3.org/1999/xlink" enable-background="new 0 0 490 490">
  <path d="M433.705,85.027C430.858,81.829,426.781,80,422.5,80h-20.665L325.884,4.371  c-5.853-5.827-15.315-5.829-21.168,0L228.763,80H67.5c-4.281,0-8.358,1.829-11.205,5.027c-2.846,3.198-4.19,7.46-3.693,11.713  l44.375,380c0.883,7.56,7.287,13.26,14.898,13.26h266.249c7.611,0,14.016-5.7,14.898-13.26l44.376-380  C437.896,92.487,436.551,88.226,433.705,85.027z M315.3,36.168L359.318,80H271.28L315.3,36.168z M289.019,110L245,153.832  L200.98,110H289.019z M364.773,460H125.226l-3.503-29.998h246.555L364.773,460z M371.78,400.002H118.219L84.354,110h74.109  l75.953,75.629c5.854,5.828,15.314,5.828,21.168,0L331.535,110h74.111L371.78,400.002z"/>
</svg>